<svg fill="none" viewBox="465.17 264 897.48 851.5" xmlns="http://www.w3.org/2000/svg" xmlns:xlink="http://www.w3.org/1999/xlink"><mask id="a" height="606" maskUnits="userSpaceOnUse" width="506" x="696" y="510"><path d="m895.728 510.502-6.679 12.778c-3.184 6.092-5.176 12.736-5.869 19.575l-2.952 29.147-167.104 165.4c-17.29 17.113-21.813 43.313-11.262 65.233l117.866 244.865c-28.649 8.53-47.815 17.69-57.5 27.5-9.684 9.81-12.517 22.92-8.5 39.34l118.5.16 12-37.5 4.071-20.16c.656-3.25 3.821-5.35 7.069-4.69 1.969.39 3.608 1.75 4.367 3.61l23.993 58.74h23l-19-88c-5.923-15.11-10.923-26.609-15-34.498-4.077-7.89-9.733-17.011-16.968-27.364l-97.532-187.136 140-179.5 129.502 459.498c-27.56 4.91-45.06 11.57-52.5 20-7.45 8.43-8.95 21.1-4.5 38h141l-3.08-57.94c-.09-1.65 1.18-3.06 2.83-3.15 1.27-.07 2.44.67 2.93 1.84l24.82 59.25h22c-12.9-45.36-21.24-74.36-25-87-5.93-19.89-28.5-49.998-24.5-36.498 0 0-16.42-61.354-46.5-141-9.74-25.776-26.63-56.171-37.36-83.482-18.7-47.555-41.37-105.232-68.021-173.033-4.802-12.216-2.873-34.495-11.621-56.749-2.492-6.34-9.492-15.085-21-26.236z" fill="#fff"/></mask><mask id="b" height="374" maskUnits="userSpaceOnUse" width="624" x="591" y="333"><path d="m869.228 383.502-209-50.5-69 207 93 6 34.5-120.5 161.5 22.5 11 62.557h76l8-78.057 154.002 252 72 22 13-22-56-160.5-156.5-146.5c-30.018 7.719-51.685 11.238-65.002 10.557-33.333-1.705-55.833-3.224-67.5-4.557z" fill="#fff"/></mask><mask id="c" height="112" maskUnits="userSpaceOnUse" width="77" x="884" y="285"><path d="m960.833 321.288c-.024-15.961-11.3-30.39-27.676-33.934l-4.923-1.066c-18.761-4.06-37.113 7.702-40.989 26.271l-2.136 10.233c-2.697 12.918 5.697 25.68 18.748 28.504l12.41 2.686-6.895 33.14c3.76 4.147 9.497 6.908 17.213 8.283s14.212.589 19.489-2.356l11.984-58.22c.883-2.054 1.575-4.226 2.05-6.5.488-2.339.724-4.674.725-6.978l.013-.065z" fill="#ff9c99"/></mask><mask id="d" height="281" maskUnits="userSpaceOnUse" width="321" x="465" y="430"><path d="m785.144 626.313-16.22 56.566-52.244-14.981-12.165 42.425-67.17-19.261 12.165-42.424-184.345-52.86 16.22-56.567 230.658-108.651 67.17 19.261-46.313 161.511zm-230.697-66.172 111.506 31.974 27.288-95.165z" fill="#56aaff"/></mask><mask id="e" height="332" maskUnits="userSpaceOnUse" width="300" x="1063" y="476"><path d="m1331.45 590.352 31.19 49.904-46.09 28.8 23.38 37.428-59.26 37.03-23.38-37.428-162.64 101.624-31.18-49.904 73.6-244.113 59.26-37.03 89.03 142.489zm-203.54 127.164 98.37-61.471-52.46-83.957z" fill="#56aaff"/></mask><g mask="url(#a)"><path d="m895.728 510.502-6.679 12.778c-3.184 6.092-5.176 12.736-5.869 19.575l-2.952 29.147-167.104 165.4c-17.29 17.113-21.813 43.313-11.262 65.233l117.866 244.865c-28.649 8.53-47.815 17.69-57.5 27.5-9.684 9.81-12.517 22.92-8.5 39.34l118.5.16 12-37.5 4.071-20.16c.656-3.25 3.821-5.35 7.069-4.69 1.969.39 3.608 1.75 4.367 3.61l23.993 58.74h23l-19-88c-5.923-15.11-10.923-26.609-15-34.498-4.077-7.89-9.733-17.011-16.968-27.364l-97.532-187.136 140-179.5 129.502 459.498c-27.56 4.91-45.06 11.57-52.5 20-7.45 8.43-8.95 21.1-4.5 38h141l-3.08-57.94c-.09-1.65 1.18-3.06 2.83-3.15 1.27-.07 2.44.67 2.93 1.84l24.82 59.25h22c-12.9-45.36-21.24-74.36-25-87-5.93-19.89-28.5-49.998-24.5-36.498 0 0-16.42-61.354-46.5-141-9.74-25.776-26.63-56.171-37.36-83.482-18.7-47.555-41.37-105.232-68.021-173.033-4.802-12.216-2.873-34.495-11.621-56.749-2.492-6.34-9.492-15.085-21-26.236z" fill="#ff567b"/><g clip-rule="evenodd" fill="#002d6f" fill-rule="evenodd"><path d="m787.729 991.502 129.5-32.5 59 163.498h-235z"/><path d="m1033.73 978.502 128 12 68.5 159.998h-235.001z"/></g></g><g mask="url(#b)"><path d="m869.228 383.502-209-50.5-69 207 93 6 34.5-120.5 161.5 22.5 11 62.557h76l8-78.057 154.002 252 72 22 13-22-56-160.5-156.5-146.5c-30.018 7.719-51.685 11.238-65.002 10.557-33.333-1.705-55.833-3.224-67.5-4.557z" fill="#ffe694"/><path d="m980.553 455.754c-.552.076-1.05-.302-1.114-.845-.063-.542.332-1.043.884-1.119l6.567-.903c.551-.075 1.05.303 1.114.845.063.543-.332 1.044-.884 1.12zm.251-10.354c-.551.075-1.05-.303-1.114-.845-.063-.543.332-1.044.884-1.12l6.567-.902c.552-.076 1.05.302 1.114.845.063.542-.332 1.043-.884 1.119zm26.986 6.46c-.55.075-1.05-.303-1.11-.845-.07-.543.33-1.044.88-1.12l6.57-.902c.55-.076 1.05.302 1.11.845.07.542-.33 1.044-.88 1.119zm.25-10.355c-.55.076-1.05-.303-1.11-.845-.06-.543.33-1.044.88-1.12l6.57-.902c.55-.076 1.05.303 1.11.845.07.543-.33 1.044-.88 1.12zm-14.144 12.906c-.545.117-1.073-.222-1.178-.757-.105-.536.252-1.064.797-1.181l6.434-1.377c.541-.117 1.071.222 1.181.758.1.535-.25 1.063-.8 1.18zm.251-10.354c-.545.116-1.072-.223-1.178-.758-.105-.535.252-1.064.797-1.181l6.434-1.377c.55-.117 1.07.223 1.18.758.1.535-.25 1.063-.8 1.18zm26.983 6.46c-.54.116-1.07-.223-1.17-.758-.11-.535.25-1.064.79-1.18l6.44-1.378c.54-.116 1.07.223 1.18.758.1.535-.26 1.064-.8 1.18zm.26-10.355c-.55.117-1.08-.223-1.18-.758-.11-.535.25-1.063.79-1.18l6.44-1.377c.54-.117 1.07.222 1.18.757.1.535-.25 1.064-.8 1.181zm13.64 7.803c-.55.076-1.05-.302-1.11-.845-.07-.542.33-1.044.88-1.119l6.57-.903c.55-.076 1.05.303 1.11.845.06.543-.33 1.044-.88 1.12zm.25-10.355c-.55.076-1.05-.302-1.11-.845-.07-.542.33-1.043.88-1.119l6.57-.902c.55-.076 1.05.302 1.11.845.07.542-.33 1.043-.88 1.119zm13.09 9.012c-.54.117-1.07-.222-1.17-.758-.11-.535.25-1.063.79-1.18l6.44-1.377c.54-.117 1.07.222 1.17.757.11.536-.25 1.064-.79 1.181zm.25-10.355c-.54.117-1.07-.222-1.17-.757-.11-.536.25-1.064.79-1.181l6.44-1.377c.54-.117 1.07.223 1.18.758.1.535-.26 1.063-.8 1.18zm-67.565-1.222c-.551.076-1.05-.303-1.113-.845-.064-.543.331-1.044.883-1.12l6.567-.902c.552-.076 1.05.302 1.114.845.064.542-.332 1.044-.883 1.119zm27.235-3.895c-.55.076-1.05-.302-1.11-.845-.06-.542.33-1.043.88-1.119l6.57-.903c.55-.075 1.05.303 1.11.845.07.543-.33 1.044-.88 1.12zm-13.892 2.552c-.545.116-1.072-.223-1.177-.758-.106-.535.251-1.064.796-1.18l6.433-1.378c.55-.116 1.07.223 1.18.758.1.535-.25 1.064-.8 1.18zm27.242-3.895c-.55.117-1.08-.222-1.18-.758-.11-.535.25-1.063.8-1.18l6.43-1.377c.55-.117 1.07.222 1.18.758.1.535-.25 1.063-.8 1.18zm13.89-2.551c-.55.076-1.05-.303-1.11-.845-.06-.543.33-1.044.88-1.12l6.57-.902c.55-.076 1.05.302 1.11.845.07.542-.33 1.044-.88 1.119zm13.35-1.343c-.55.116-1.08-.223-1.18-.758-.11-.535.25-1.064.79-1.18l6.44-1.378c.54-.116 1.07.223 1.18.758.1.535-.25 1.064-.8 1.18zm-67.573-1.223c-.552.076-1.051-.302-1.114-.845-.064-.542.332-1.044.883-1.119l6.567-.903c.552-.076 1.051.303 1.114.845.064.543-.332 1.044-.883 1.12zm27.243-3.894c-.56.075-1.05-.303-1.12-.845-.06-.543.33-1.044.88-1.12l6.57-.902c.55-.076 1.05.302 1.12.845.06.542-.34 1.043-.89 1.119zm-13.901 2.551c-.545.117-1.072-.222-1.177-.758-.105-.535.251-1.063.796-1.18l6.432-1.377c.55-.117 1.07.222 1.18.757.11.536-.25 1.064-.8 1.181zm27.241-3.894c-.55.116-1.07-.223-1.18-.758-.1-.535.25-1.064.8-1.181l6.43-1.377c.55-.117 1.07.223 1.18.758.1.535-.25 1.063-.8 1.18zm13.89-2.552c-.55.076-1.05-.303-1.11-.845-.06-.543.33-1.044.88-1.12l6.57-.902c.55-.076 1.05.303 1.11.845.07.543-.33 1.044-.88 1.12zm13.35-1.343c-.55.117-1.08-.223-1.18-.758-.11-.535.25-1.063.8-1.18l6.43-1.377c.55-.117 1.07.222 1.18.757.1.535-.25 1.064-.8 1.181zm-67.572-1.223c-.552.076-1.05-.302-1.114-.845-.064-.542.332-1.043.883-1.119l6.568-.903c.551-.075 1.05.303 1.113.846.064.542-.331 1.043-.883 1.119zm27.242-3.894c-.56.076-1.05-.303-1.12-.845-.06-.543.33-1.044.89-1.12l6.56-.902c.55-.076 1.05.302 1.12.845.06.542-.33 1.044-.89 1.119zm-13.899 2.551c-.546.117-1.073-.222-1.178-.757-.105-.536.251-1.064.796-1.181l6.431-1.377c.55-.117 1.08.222 1.18.758.11.535-.25 1.063-.79 1.18zm27.239-3.894c-.55.117-1.07-.223-1.18-.758-.1-.535.25-1.064.8-1.18l6.43-1.378c.55-.116 1.07.223 1.18.758s-.25 1.064-.8 1.18zm13.9-2.552c-.56.076-1.06-.302-1.12-.845-.06-.542.33-1.043.88-1.119l6.57-.903c.55-.075 1.05.303 1.12.845.06.543-.34 1.044-.89 1.12zm13.34-1.343c-.55.117-1.07-.222-1.18-.758-.1-.535.25-1.063.8-1.18l6.43-1.377c.55-.117 1.07.222 1.18.758.1.535-.25 1.063-.8 1.18zm-67.571-1.222c-.552.075-1.05-.303-1.114-.845-.063-.543.332-1.044.884-1.12l6.567-.902c.551-.076 1.05.302 1.114.845.063.542-.332 1.043-.884 1.119zm27.241-3.895c-.55.076-1.05-.302-1.12-.845-.06-.542.34-1.044.89-1.119l6.56-.903c.56-.076 1.05.303 1.12.845.06.543-.33 1.044-.89 1.12zm-13.898 2.552c-.545.116-1.073-.223-1.178-.758s.252-1.064.797-1.18l6.439-1.378c.54-.117 1.07.223 1.17.758.11.535-.25 1.064-.79 1.18zm27.238-3.895c-.54.117-1.07-.222-1.18-.758-.1-.535.25-1.063.8-1.18l6.43-1.377c.55-.117 1.08.222 1.18.757.11.536-.25 1.064-.8 1.181zm13.9-2.551c-.56.075-1.05-.303-1.12-.845-.06-.543.33-1.044.89-1.12l6.56-.902c.55-.076 1.05.302 1.12.845.06.542-.33 1.043-.89 1.119zm13.34-1.343c-.55.116-1.07-.223-1.18-.758-.1-.535.25-1.064.8-1.181l6.43-1.377c.55-.117 1.07.223 1.18.758s-.25 1.063-.8 1.18zm-40.33-5.118c-.55.076-1.05-.302-1.11-.845-.07-.542.33-1.043.88-1.119l6.57-.903c.55-.075 1.05.303 1.11.846.06.542-.33 1.043-.88 1.119zm-13.897 2.552c-.545.117-1.072-.223-1.178-.758-.105-.535.252-1.063.797-1.18l6.438-1.377c.54-.117 1.07.222 1.17.757.11.535-.25 1.064-.79 1.181zm27.237-3.895c-.54.117-1.07-.222-1.18-.757-.1-.536.26-1.064.8-1.181l6.43-1.377c.55-.117 1.08.222 1.18.758.11.535-.25 1.063-.79 1.18zm-37.296 4.787-.231-1.965zm0 0-3.284.451c-1.331.183-1.562-1.782-.23-1.965l3.283-.451 3.284-.451c1.332-.183 1.562 1.782.23 1.965zm54.476-7.789-.23-1.965zm-.23-1.965c1.33-.183 1.56 1.782.23 1.965l-3.28.451c-1.33.183-1.56-1.782-.23-1.965l3.28-.451 3.28-.451c1.34-.183 1.57 1.782.23 1.964l-3.28.452c-1.33.183-1.56-1.782-.23-1.965zm10.29 1.073c-.54.116-1.07-.223-1.18-.758-.1-.535.25-1.064.8-1.18l6.43-1.378c.55-.116 1.08.223 1.18.758.11.535-.25 1.064-.8 1.18zm-154.965 16.486c-.016-.547.422-1.013.977-1.041.555-.029 1.017.392 1.032.939l.183 6.514c.015.547-.422 1.013-.977 1.042-.555.028-1.017-.393-1.033-.94zm10.43.903c-.015-.547.422-1.014.977-1.042s1.017.393 1.033.94l.182 6.514c.015.547-.422 1.013-.977 1.041s-1.017-.392-1.033-.939zm-9.52 26.124c-.015-.547.422-1.013.977-1.042.555-.028 1.017.393 1.032.94l.183 6.514c.015.547-.422 1.013-.977 1.041-.555.029-1.017-.392-1.033-.939zm10.43.903c-.015-.547.422-1.014.977-1.042s1.017.392 1.033.939l.182 6.514c.015.547-.422 1.014-.977 1.042s-1.017-.392-1.033-.939zm-11.465-14.726c-.057-.544.344-1.041.896-1.11.552-.07 1.047.314 1.104.857l.677 6.414c.057.543-.344 1.04-.896 1.11-.552.069-1.046-.315-1.104-.858zm10.43.902c-.057-.543.344-1.04.896-1.11.553-.069 1.047.315 1.104.858l.677 6.413c.057.544-.344 1.041-.896 1.11-.552.07-1.046-.314-1.104-.858zm-9.52 26.124c-.057-.543.344-1.04.896-1.109.552-.07 1.047.314 1.104.857l.677 6.414c.057.543-.344 1.04-.896 1.109-.552.07-1.046-.314-1.104-.857zm10.43.903c-.057-.543.344-1.04.896-1.11.553-.069 1.047.315 1.104.858l.677 6.413c.057.544-.344 1.04-.896 1.11s-1.046-.314-1.104-.858zm-9.395 12.921c-.015-.547.422-1.014.977-1.042s1.017.393 1.033.94l.182 6.514c.015.547-.422 1.013-.977 1.041s-1.017-.392-1.033-.939zm10.43.902c-.015-.547.422-1.013.977-1.041s1.017.392 1.033.939l.182 6.514c.015.547-.422 1.014-.977 1.042s-1.017-.393-1.033-.94zm-10.555 12.301c-.057-.543.344-1.04.896-1.11.553-.069 1.047.315 1.104.858l.677 6.413c.057.544-.344 1.041-.896 1.11-.552.07-1.046-.314-1.104-.857zm10.43.903c-.057-.544.344-1.04.896-1.11.553-.07 1.047.314 1.104.858l.677 6.413c.057.543-.344 1.04-.896 1.11-.552.069-1.046-.315-1.104-.858zm8.735-66.355c-.015-.547.422-1.013.977-1.041s1.017.392 1.033.939l.182 6.514c.015.547-.422 1.013-.977 1.042-.555.028-1.017-.393-1.033-.94zm.91 27.027c-.015-.547.422-1.013.977-1.041.555-.029 1.017.392 1.033.939l.182 6.514c.015.547-.422 1.013-.977 1.042-.555.028-1.017-.393-1.033-.94zm-1.035-13.823c-.057-.544.344-1.04.896-1.11.553-.07 1.047.314 1.104.858l.677 6.413c.057.543-.344 1.04-.896 1.11-.552.069-1.046-.315-1.104-.858zm.91 27.027c-.057-.544.344-1.041.896-1.11.553-.07 1.047.314 1.104.857l.677 6.414c.057.543-.344 1.04-.896 1.11-.552.069-1.046-.315-1.104-.858zm1.035 13.823c-.015-.547.422-1.013.977-1.042.555-.028 1.017.393 1.033.94l.182 6.514c.015.547-.422 1.013-.977 1.041-.555.029-1.017-.392-1.033-.939zm-.125 13.203c-.057-.543.344-1.04.896-1.109.553-.07 1.047.314 1.104.857l.677 6.414c.057.543-.344 1.04-.896 1.109-.552.07-1.046-.314-1.104-.857zm8.735-66.354c-.015-.547.422-1.013.977-1.042.555-.028 1.017.393 1.033.94l.182 6.514c.015.547-.422 1.013-.977 1.041-.555.029-1.017-.392-1.033-.939zm.91 27.027c-.015-.547.422-1.014.977-1.042s1.017.393 1.033.94l.182 6.514c.016.547-.422 1.013-.977 1.041s-1.017-.392-1.032-.939zm-1.035-13.824c-.057-.543.344-1.04.896-1.109.553-.07 1.047.314 1.104.857l.677 6.414c.057.543-.344 1.04-.896 1.109-.552.07-1.046-.314-1.104-.857zm.91 27.027c-.057-.543.344-1.04.897-1.11.552-.069 1.046.315 1.103.858l.677 6.413c.057.544-.344 1.041-.896 1.11-.552.07-1.046-.314-1.104-.858zm1.035 13.824c-.015-.547.422-1.014.977-1.042s1.017.392 1.033.939l.182 6.514c.016.547-.422 1.014-.977 1.042s-1.017-.392-1.032-.939zm-.124 13.203c-.058-.543.343-1.04.896-1.11.552-.069 1.046.315 1.103.858l.677 6.413c.058.544-.344 1.04-.896 1.11s-1.046-.314-1.104-.858zm8.734-66.354c-.015-.547.422-1.014.977-1.042s1.017.392 1.033.939l.182 6.514c.016.547-.422 1.014-.977 1.042s-1.017-.392-1.032-.939zm.91 27.026c-.015-.547.422-1.013.977-1.041s1.017.392 1.033.939l.182 6.514c.016.547-.422 1.014-.977 1.042s-1.017-.393-1.032-.94zm-1.034-13.823c-.058-.543.343-1.04.895-1.11.553-.069 1.047.315 1.104.858l.677 6.413c.057.544-.344 1.04-.896 1.11s-1.046-.314-1.104-.858zm.91 27.027c-.058-.544.343-1.04.896-1.11.552-.07 1.046.314 1.103.858l.677 6.413c.058.543-.344 1.04-.896 1.11-.552.069-1.046-.315-1.104-.858zm1.034 13.823c-.015-.547.422-1.013.977-1.041.555-.029 1.018.392 1.033.939l.182 6.514c.016.547-.422 1.013-.977 1.042-.555.028-1.017-.393-1.032-.94zm-.124 13.204c-.058-.544.343-1.041.896-1.11.552-.07 1.046.314 1.103.858l.677 6.413c.058.543-.344 1.04-.896 1.11-.552.069-1.046-.315-1.103-.858zm8.734-66.355c-.015-.547.422-1.013.977-1.041.555-.029 1.017.392 1.033.939l.182 6.514c.016.547-.422 1.013-.977 1.042-.555.028-1.017-.393-1.032-.94zm.91 27.027c-.015-.547.422-1.013.977-1.042.555-.028 1.018.393 1.033.94l.182 6.514c.016.547-.422 1.013-.977 1.041-.555.029-1.017-.392-1.032-.939zm-1.034-13.823c-.058-.544.343-1.041.896-1.11.552-.07 1.046.314 1.103.857l.677 6.414c.058.543-.344 1.04-.896 1.11-.552.069-1.046-.315-1.104-.858zm.91 27.026c-.058-.543.343-1.04.896-1.109.552-.07 1.046.314 1.103.857l.677 6.414c.058.543-.344 1.04-.896 1.109-.552.07-1.046-.314-1.103-.857zm1.034 13.824c-.015-.547.422-1.013.977-1.042.555-.028 1.018.393 1.033.94l.182 6.514c.016.547-.422 1.013-.977 1.041s-1.017-.392-1.032-.939zm-.124 13.203c-.058-.543.343-1.04.896-1.11.552-.069 1.046.315 1.103.858l.677 6.413c.058.544-.344 1.041-.896 1.11-.552.07-1.046-.314-1.103-.857zm9.644-39.327c-.015-.547.422-1.014.977-1.042s1.018.392 1.033.939l.182 6.514c.016.547-.422 1.014-.977 1.042s-1.017-.392-1.032-.939zm-1.034-13.824c-.058-.543.343-1.04.896-1.11.552-.069 1.046.315 1.103.858l.677 6.413c.058.544-.344 1.041-.896 1.11-.552.07-1.046-.314-1.103-.858zm.91 27.027c-.058-.543.343-1.04.896-1.11.552-.069 1.046.315 1.103.858l.677 6.413c.058.544-.344 1.04-.896 1.11s-1.046-.314-1.103-.858zm-.695-36.973 2.01-.102zm0 0-.091-3.257c-.037-1.321 1.973-1.423 2.01-.102l.091 3.257.091 3.257c.037 1.32-1.972 1.422-2.009.102zm1.821 54.053 2.009-.102zm2.009-.102c.037 1.321-1.972 1.423-2.009.102l-.092-3.257c-.037-1.32 1.973-1.422 2.01-.102l.091 3.257.091 3.257c.037 1.321-1.972 1.423-2.009.102l-.091-3.257c-.037-1.32 1.972-1.422 2.009-.102zm-2.225 10.049c-.058-.544.344-1.04.896-1.11s1.046.314 1.103.858l.677 6.413c.058.543-.343 1.04-.896 1.11-.552.069-1.046-.315-1.103-.858zm74.569 22.851c-.3-.449-.18-1.067.28-1.381.47-.314 1.09-.204 1.4.245l3.65 5.346c.31.449.19 1.067-.28 1.381-.46.314-1.08.204-1.39-.245zm9.46-4.701c-.3-.449-.18-1.067.29-1.381.46-.314 1.08-.204 1.39.245l3.66 5.346c.3.449.18 1.067-.29 1.381-.46.314-1.08.204-1.39-.245zm5.85 26.803c-.31-.449-.19-1.068.28-1.382.46-.313 1.08-.204 1.39.245l3.66 5.346c.3.449.18 1.068-.28 1.381-.47.314-1.09.205-1.4-.244zm9.46-4.701c-.31-.449-.18-1.068.28-1.381.46-.314 1.09-.205 1.39.244l3.66 5.346c.31.449.18 1.068-.28 1.382-.46.313-1.09.204-1.4-.245zm-17.78-6.306c-.34-.424-.26-1.049.17-1.396.44-.347 1.07-.284 1.41.14l4.03 5.003c.34.424.27 1.049-.17 1.396s-1.07.284-1.41-.14zm9.46-4.701c-.34-.424-.26-1.049.18-1.396.43-.346 1.07-.284 1.41.14l4.03 5.003c.34.424.26 1.049-.18 1.396s-1.07.284-1.41-.139zm5.84 26.802c-.34-.424-.26-1.048.18-1.395.43-.347 1.07-.285 1.41.139l4.03 5.003c.34.424.26 1.049-.18 1.396s-1.07.285-1.41-.139zm9.46-4.7c-.34-.424-.26-1.049.18-1.396s1.07-.285 1.41.139l4.03 5.004c.34.423.26 1.048-.18 1.395-.43.347-1.07.285-1.41-.139zm-1.14 15.707c-.31-.449-.18-1.067.28-1.381s1.09-.204 1.39.245l3.66 5.346c.31.449.18 1.067-.28 1.381s-1.09.204-1.39-.245zm9.46-4.701c-.31-.449-.18-1.067.28-1.381.47-.314 1.09-.204 1.4.245l3.65 5.346c.31.449.18 1.067-.28 1.381s-1.08.204-1.39-.245zm-2.47 15.796c-.35-.424-.27-1.049.17-1.396s1.07-.285 1.41.139l4.03 5.004c.34.424.26 1.049-.18 1.396-.43.346-1.07.284-1.41-.14zm9.46-4.701c-.34-.424-.27-1.049.17-1.396s1.07-.284 1.41.14l4.03 5.003c.34.424.26 1.049-.17 1.396-.44.347-1.07.284-1.41-.14zm-28.13-59.998c-.31-.449-.18-1.068.28-1.382.46-.313 1.09-.204 1.39.245l3.66 5.346c.31.449.18 1.068-.28 1.381-.47.314-1.09.205-1.4-.244zm15.3 22.101c-.31-.449-.18-1.067.28-1.381s1.09-.204 1.4.245l3.65 5.346c.31.449.18 1.067-.28 1.381s-1.09.204-1.39-.245zm-8.32-11.007c-.34-.424-.26-1.048.18-1.395s1.07-.285 1.41.139l4.03 5.003c.34.424.26 1.049-.18 1.396s-1.07.285-1.41-.139zm15.31 22.102c-.34-.424-.27-1.049.17-1.396s1.07-.285 1.41.139l4.03 5.004c.34.424.26 1.049-.17 1.395-.44.347-1.07.285-1.41-.139zm8.31 11.006c-.3-.449-.18-1.067.29-1.381.46-.314 1.08-.204 1.39.245l3.66 5.346c.3.449.18 1.067-.29 1.381-.46.314-1.08.204-1.39-.245zm6.99 11.095c-.34-.424-.26-1.049.18-1.396.43-.347 1.06-.284 1.41.14l4.02 5.003c.35.424.27 1.049-.17 1.396s-1.07.284-1.41-.139zm-28.13-59.998c-.31-.449-.18-1.068.28-1.381.46-.314 1.09-.205 1.39.244l3.66 5.346c.31.449.18 1.068-.28 1.382-.46.313-1.09.204-1.39-.245zm15.3 22.101c-.3-.449-.18-1.067.28-1.381.47-.314 1.09-.204 1.4.245l3.65 5.346c.31.449.19 1.067-.28 1.381-.46.314-1.08.204-1.39-.245zm-8.31-11.007c-.35-.423-.27-1.048.17-1.395s1.07-.285 1.41.139l4.03 5.004c.34.423.26 1.048-.18 1.395-.43.347-1.06.285-1.41-.139zm15.3 22.102c-.34-.424-.26-1.049.17-1.396.44-.347 1.07-.284 1.41.139l4.03 5.004c.34.424.27 1.049-.17 1.396s-1.07.284-1.41-.14zm8.32 11.006c-.31-.448-.18-1.067.28-1.381.46-.313 1.08-.204 1.39.245l3.66 5.346c.3.449.18 1.067-.28 1.381-.47.314-1.09.205-1.4-.244zm6.98 11.095c-.34-.424-.26-1.049.18-1.395.44-.347 1.07-.285 1.41.139l4.03 5.003c.34.424.26 1.049-.18 1.396s-1.07.285-1.41-.139zm-28.13-59.998c-.31-.449-.18-1.067.28-1.381.47-.314 1.09-.204 1.4.244l3.65 5.347c.31.449.18 1.067-.28 1.381-.46.313-1.08.204-1.39-.245zm15.31 22.101c-.31-.449-.19-1.067.28-1.381.46-.314 1.08-.204 1.39.245l3.66 5.346c.3.449.18 1.067-.28 1.381-.47.314-1.09.204-1.4-.245zm-8.32-11.006c-.34-.424-.26-1.049.17-1.396.44-.347 1.07-.285 1.41.139l4.03 5.004c.34.424.27 1.048-.17 1.395s-1.07.285-1.41-.139zm15.3 22.101c-.34-.424-.26-1.049.18-1.396.43-.347 1.07-.284 1.41.14l4.03 5.003c.34.424.26 1.049-.18 1.396s-1.07.284-1.41-.14zm8.32 11.007c-.31-.449-.18-1.068.28-1.381.46-.314 1.09-.205 1.39.244l3.66 5.346c.31.449.18 1.068-.28 1.381-.46.314-1.09.205-1.39-.244zm6.98 11.094c-.34-.423-.26-1.048.18-1.395s1.07-.285 1.41.139l4.03 5.004c.34.423.26 1.048-.18 1.395-.43.347-1.07.285-1.41-.139zm-28.13-59.998c-.3-.449-.18-1.067.29-1.381.46-.314 1.08-.204 1.39.245l3.66 5.346c.3.449.18 1.067-.29 1.381-.46.314-1.08.204-1.39-.245zm15.31 22.101c-.31-.449-.18-1.067.28-1.381.46-.313 1.09-.204 1.39.245l3.66 5.346c.31.449.18 1.067-.28 1.381s-1.09.204-1.4-.244zm-8.32-11.006c-.34-.424-.26-1.049.18-1.396.43-.347 1.07-.284 1.41.139l4.02 5.004c.35.424.27 1.049-.17 1.396s-1.07.284-1.41-.14zm15.3 22.101c-.34-.424-.26-1.049.18-1.395.44-.347 1.07-.285 1.41.139l4.03 5.003c.34.424.26 1.049-.18 1.396-.43.347-1.07.285-1.41-.139zm8.32 11.007c-.31-.449-.18-1.067.28-1.381.47-.314 1.09-.205 1.4.244l3.65 5.347c.31.448.18 1.067-.28 1.381-.46.313-1.09.204-1.39-.245zm6.99 11.095c-.34-.424-.27-1.049.17-1.396s1.07-.285 1.41.139l4.03 5.004c.34.424.26 1.048-.17 1.395-.44.347-1.07.285-1.41-.139zm-12.83-37.897c-.31-.449-.18-1.068.28-1.381.46-.314 1.09-.205 1.4.244l3.65 5.346c.31.449.18 1.068-.28 1.381-.46.314-1.09.205-1.39-.244zm-8.32-11.007c-.34-.424-.26-1.049.18-1.396s1.07-.284 1.41.14l4.03 5.003c.34.424.26 1.049-.18 1.396s-1.07.284-1.41-.14zm15.31 22.101c-.34-.424-.27-1.048.17-1.395s1.07-.285 1.41.139l4.03 5.003c.34.424.26 1.049-.17 1.396-.44.347-1.07.285-1.42-.139zm-20.46-30.523 1.67-1.136zm0 0-1.83-2.673c-.74-1.084.93-2.22 1.67-1.136l1.83 2.673 1.83 2.673c.74 1.084-.94 2.22-1.68 1.136zm30.6 44.203 1.68-1.136zm1.68-1.136c.74 1.084-.94 2.22-1.68 1.136l-1.83-2.673c-.74-1.084.94-2.22 1.68-1.136l1.83 2.673 1.83 2.673c.74 1.084-.94 2.22-1.68 1.136l-1.83-2.673c-.74-1.084.94-2.22 1.68-1.136zm3.48 9.558c-.34-.424-.26-1.049.17-1.396.44-.347 1.07-.285 1.42.139l4.02 5.004c.34.424.27 1.049-.17 1.396-.44.346-1.07.284-1.41-.14zm-49.32 40.065c-.29-.46-.15-1.074.33-1.372.47-.298 1.09-.167 1.38.293l3.46 5.473c.29.46.14 1.074-.33 1.372s-1.09.167-1.38-.293zm9.61-4.376c-.29-.46-.14-1.074.33-1.372s1.09-.167 1.38.293l3.47 5.473c.29.46.14 1.074-.33 1.372-.48.298-1.1.167-1.39-.293zm4.89 27.009c-.3-.459-.15-1.073.33-1.371.47-.298 1.09-.167 1.38.292l3.46 5.474c.29.459.14 1.073-.33 1.371s-1.09.167-1.38-.292zm9.61-4.376c-.29-.459-.14-1.073.33-1.371s1.09-.167 1.38.292l3.47 5.474c.29.459.14 1.073-.33 1.371-.48.298-1.1.167-1.39-.292zm-17.53-6.919c-.33-.436-.23-1.058.22-1.39s1.08-.248 1.41.188l3.84 5.143c.33.436.23 1.058-.22 1.39s-1.08.248-1.41-.188zm9.61-4.376c-.32-.436-.22-1.058.23-1.39s1.08-.248 1.4.188l3.85 5.143c.32.436.22 1.058-.23 1.39s-1.07.248-1.4-.188zm4.89 27.009c-.33-.436-.23-1.058.22-1.39s1.08-.248 1.41.188l3.84 5.144c.33.435.23 1.058-.22 1.39-.45.331-1.08.247-1.41-.188zm9.61-4.376c-.32-.435-.22-1.058.23-1.39s1.08-.248 1.4.188l3.85 5.144c.32.435.22 1.058-.23 1.39-.45.331-1.07.247-1.4-.188zm-1.7 15.672c-.29-.46-.14-1.074.33-1.372.48-.298 1.1-.167 1.39.293l3.46 5.473c.29.46.14 1.074-.33 1.372s-1.09.167-1.38-.293zm9.62-4.376c-.29-.46-.14-1.074.33-1.372s1.09-.167 1.38.293l3.46 5.473c.3.46.15 1.074-.33 1.372-.47.298-1.09.167-1.38-.293zm-3.03 15.714c-.33-.436-.23-1.058.22-1.39s1.08-.248 1.41.188l3.84 5.143c.33.436.23 1.058-.22 1.39s-1.08.248-1.41-.188zm9.61-4.376c-.32-.436-.22-1.058.23-1.39s1.08-.248 1.4.188l3.85 5.143c.32.436.22 1.058-.23 1.39s-1.08.248-1.4-.188zm-25.96-60.981c-.29-.46-.15-1.074.33-1.372.47-.298 1.09-.167 1.38.293l3.46 5.473c.29.46.14 1.074-.33 1.372s-1.09.167-1.38-.293zm14.5 22.633c-.3-.459-.15-1.073.33-1.371.47-.298 1.09-.167 1.38.292l3.46 5.474c.29.459.14 1.073-.33 1.371s-1.09.167-1.38-.292zm-7.92-11.295c-.33-.436-.23-1.058.22-1.39s1.08-.248 1.41.188l3.84 5.143c.33.436.23 1.058-.22 1.39s-1.08.248-1.4-.188zm14.5 22.633c-.33-.435-.23-1.058.22-1.39s1.08-.247 1.41.188l3.84 5.144c.33.435.23 1.058-.22 1.39s-1.08.247-1.41-.188zm7.91 11.296c-.29-.46-.14-1.074.33-1.372.48-.298 1.1-.167 1.39.293l3.46 5.473c.29.46.14 1.074-.33 1.372s-1.09.167-1.38-.293zm6.59 11.338c-.33-.436-.23-1.058.22-1.39s1.08-.248 1.41.188l3.84 5.143c.33.436.23 1.058-.22 1.39s-1.08.248-1.41-.188zm-25.97-60.981c-.29-.46-.14-1.074.33-1.372s1.09-.167 1.38.293l3.47 5.473c.29.46.14 1.074-.33 1.372-.48.298-1.1.167-1.39-.293zm14.5 22.633c-.29-.459-.14-1.073.33-1.371s1.09-.167 1.38.292l3.47 5.474c.29.459.14 1.073-.33 1.371-.48.298-1.1.167-1.39-.292zm-7.92-11.295c-.32-.436-.22-1.058.23-1.39s1.08-.248 1.4.188l3.85 5.143c.32.436.22 1.058-.23 1.39s-1.07.248-1.4-.188zm14.5 22.633c-.32-.435-.22-1.058.23-1.39s1.08-.247 1.4.188l3.85 5.144c.32.435.22 1.058-.23 1.39s-1.07.247-1.4-.188zm7.92 11.296c-.29-.46-.14-1.074.33-1.372s1.09-.167 1.38.293l3.46 5.473c.3.46.15 1.074-.33 1.372-.47.298-1.09.167-1.38-.293zm6.58 11.338c-.32-.436-.22-1.058.23-1.39s1.08-.248 1.4.188l3.85 5.143c.32.436.22 1.058-.23 1.39s-1.08.248-1.4-.188zm-25.96-60.981c-.29-.46-.15-1.074.33-1.372.47-.298 1.09-.167 1.38.293l3.46 5.473c.29.46.14 1.074-.33 1.372s-1.09.167-1.38-.293zm14.5 22.633c-.3-.459-.15-1.073.33-1.371.47-.298 1.09-.167 1.38.292l3.46 5.474c.29.459.14 1.073-.33 1.371s-1.09.167-1.38-.292zm-7.92-11.295c-.33-.436-.23-1.058.22-1.39s1.08-.248 1.41.188l3.84 5.143c.33.436.23 1.058-.22 1.39s-1.08.248-1.4-.188zm14.5 22.633c-.33-.435-.23-1.058.22-1.39s1.08-.247 1.41.188l3.84 5.144c.33.435.23 1.058-.22 1.39s-1.08.247-1.41-.188zm7.91 11.296c-.29-.46-.14-1.074.33-1.372.48-.298 1.1-.167 1.39.293l3.46 5.473c.29.46.14 1.074-.33 1.372s-1.09.167-1.38-.293zm6.59 11.338c-.33-.436-.23-1.058.22-1.39s1.08-.248 1.41.188l3.84 5.143c.33.436.23 1.058-.22 1.39s-1.08.248-1.41-.188zm-25.97-60.981c-.29-.46-.14-1.074.33-1.372s1.09-.167 1.38.293l3.47 5.473c.29.46.14 1.074-.33 1.372-.48.298-1.1.167-1.39-.293zm14.5 22.633c-.29-.459-.14-1.073.33-1.371s1.09-.167 1.38.292l3.47 5.474c.29.459.14 1.074-.33 1.371-.48.298-1.1.167-1.39-.292zm-7.92-11.295c-.32-.436-.22-1.058.23-1.39s1.08-.248 1.4.188l3.85 5.143c.32.436.22 1.058-.23 1.39s-1.07.248-1.4-.188zm14.5 22.633c-.32-.435-.22-1.058.23-1.39s1.08-.247 1.4.188l3.85 5.144c.32.435.22 1.058-.23 1.39s-1.07.247-1.4-.188zm7.92 11.296c-.29-.46-.14-1.074.33-1.372s1.09-.167 1.38.293l3.46 5.473c.3.46.15 1.074-.33 1.372-.47.298-1.09.167-1.38-.293zm6.58 11.338c-.32-.436-.22-1.058.23-1.39s1.08-.248 1.4.188l3.85 5.143c.32.436.22 1.058-.23 1.39s-1.08.248-1.4-.188zm-11.46-38.348c-.3-.459-.15-1.073.33-1.371.47-.298 1.09-.167 1.38.293l3.46 5.473c.29.459.14 1.074-.33 1.371-.47.298-1.09.167-1.38-.292zm-7.92-11.295c-.33-.436-.23-1.058.22-1.39s1.08-.248 1.41.188l3.84 5.143c.33.436.23 1.058-.22 1.39s-1.08.248-1.4-.188zm14.5 22.633c-.33-.435-.23-1.058.22-1.39s1.08-.247 1.41.188l3.84 5.144c.33.435.23 1.058-.22 1.39s-1.08.247-1.41-.188zm-19.35-31.234 1.71-1.079zm0 0-1.73-2.737c-.71-1.11 1.01-2.189 1.71-1.079l1.73 2.737 1.73 2.736c.7 1.11-1.01 2.189-1.71 1.079zm29 45.267 1.71-1.079zm1.71-1.079c.7 1.109-1.01 2.188-1.71 1.079l-1.74-2.737c-.7-1.11 1.02-2.189 1.72-1.079l1.73 2.737 1.73 2.736c.7 1.11-1.01 2.189-1.71 1.079l-1.73-2.736c-.71-1.11 1.01-2.189 1.71-1.079zm3.14 9.68c-.33-.436-.23-1.058.22-1.39s1.08-.248 1.41.188l3.84 5.143c.33.436.23 1.058-.22 1.39s-1.08.248-1.41-.188zm-383.235-162.239c-.535-.133-.849-.672-.701-1.203.147-.531.701-.854 1.236-.721l6.373 1.583c.535.133.849.671.702 1.203-.148.531-.702.854-1.237.721zm4.164-9.601c-.536-.133-.85-.671-.702-1.203.147-.531.701-.854 1.236-.721l6.373 1.583c.535.133.849.672.702 1.203-.148.531-.701.854-1.236.721zm22.326 16.025c-.535-.133-.849-.671-.701-1.202.147-.532.701-.855 1.236-.722l6.373 1.583c.535.133.849.672.702 1.203-.148.532-.701.855-1.237.722zm4.164-9.6c-.535-.133-.85-.672-.702-1.203.148-.532.701-.855 1.236-.722l6.373 1.584c.535.133.85.671.702 1.203-.148.531-.701.854-1.236.721zm-17.892 6.852c-.545-.093-.9-.605-.793-1.145.106-.54.634-.903 1.179-.811l6.431 1.09c.545.092.901.605.794 1.145-.107.539-.635.902-1.18.81zm4.163-9.601c-.545-.092-.9-.605-.793-1.145.106-.54.634-.903 1.179-.81l6.432 1.089c.545.092.9.605.793 1.145-.106.54-.635.903-1.179.81zm22.327 16.025c-.545-.092-.9-.605-.793-1.145.106-.54.634-.902 1.179-.81l6.432 1.089c.544.093.9.605.793 1.145s-.635.903-1.179.811zm4.163-9.601c-.544-.092-.9-.604-.793-1.144s.635-.903 1.179-.811l6.432 1.09c.545.092.9.604.793 1.144-.106.54-.634.903-1.179.811zm9.566 12.35c-.536-.133-.85-.672-.702-1.203.147-.531.701-.854 1.236-.721l6.373 1.583c.535.133.849.671.702 1.203-.148.531-.701.854-1.236.721zm4.163-9.601c-.535-.133-.85-.671-.702-1.203.148-.531.701-.854 1.236-.721l6.373 1.583c.536.133.85.672.702 1.203-.147.531-.701.854-1.236.721zm8.598 13.277c-.545-.093-.9-.605-.793-1.145.106-.54.635-.903 1.179-.811l6.432 1.09c.545.092.9.605.793 1.144-.106.54-.634.903-1.179.811zm4.164-9.601c-.545-.092-.901-.605-.794-1.145s.635-.903 1.18-.81l6.431 1.089c.545.092.9.605.793 1.145-.106.54-.634.903-1.179.81zm-61.579-26.125c-.535-.133-.85-.672-.702-1.203.148-.532.701-.855 1.236-.722l6.373 1.583c.535.133.85.672.702 1.203-.148.532-.701.855-1.236.722zm26.49 6.424c-.535-.133-.849-.671-.702-1.203.148-.531.701-.854 1.236-.721l6.373 1.583c.536.133.85.671.702 1.203-.147.531-.701.854-1.236.721zm-13.729-2.749c-.544-.092-.9-.605-.793-1.145.107-.539.635-.902 1.18-.81l6.431 1.089c.545.093.9.605.793 1.145-.106.54-.634.903-1.179.811zm26.491 6.425c-.545-.093-.9-.605-.794-1.145.107-.54.635-.903 1.18-.811l6.431 1.09c.545.092.9.605.794 1.145-.107.54-.635.902-1.18.81zm13.728 2.749c-.535-.133-.849-.672-.702-1.203.148-.532.701-.855 1.237-.722l6.373 1.583c.535.133.849.672.701 1.203-.147.532-.701.855-1.236.722zm12.762 3.675c-.545-.092-.9-.605-.794-1.145.107-.539.635-.902 1.18-.81l6.431 1.089c.545.093.9.605.794 1.145-.107.54-.635.903-1.18.811zm-61.579-26.125c-.535-.133-.849-.672-.702-1.203.148-.531.701-.854 1.237-.721l6.373 1.583c.535.133.849.671.701 1.203-.147.531-.701.854-1.236.721zm26.49 6.424c-.535-.133-.849-.671-.702-1.203.148-.531.702-.854 1.237-.721l6.373 1.583c.535.133.849.672.701 1.203-.147.532-.701.855-1.236.722zm-13.728-2.748c-.545-.093-.9-.605-.794-1.145.107-.54.635-.903 1.18-.811l6.431 1.09c.545.092.9.605.794 1.144-.107.54-.635.903-1.18.811zm26.49 6.424c-.545-.092-.9-.605-.794-1.145.107-.54.635-.902 1.18-.81l6.431 1.089c.545.093.9.605.794 1.145-.107.54-.635.903-1.18.81zm13.728 2.749c-.535-.133-.849-.672-.701-1.203.147-.531.701-.854 1.236-.721l6.373 1.583c.535.133.849.671.702 1.203-.148.531-.702.854-1.237.721zm12.762 3.676c-.545-.093-.9-.605-.793-1.145.106-.54.634-.903 1.179-.811l6.431 1.09c.545.092.901.605.794 1.144-.107.54-.635.903-1.18.811zm-61.579-26.126c-.535-.133-.849-.671-.701-1.203.147-.531.701-.854 1.236-.721l6.373 1.583c.535.133.849.672.702 1.203-.148.531-.702.854-1.237.721zm26.49 6.425c-.535-.133-.849-.672-.701-1.203.147-.532.701-.855 1.236-.722l6.373 1.584c.535.133.849.671.702 1.202-.148.532-.701.855-1.237.722zm-13.728-2.749c-.545-.092-.9-.605-.794-1.145.107-.54.635-.903 1.18-.81l6.431 1.089c.545.092.9.605.794 1.145-.107.54-.635.903-1.18.81zm26.49 6.424c-.545-.092-.9-.604-.793-1.144.106-.54.634-.903 1.179-.811l6.432 1.09c.544.092.9.604.793 1.144s-.635.903-1.18.811zm13.729 2.749c-.536-.133-.85-.671-.702-1.203.147-.531.701-.854 1.236-.721l6.373 1.583c.535.133.849.672.702 1.203-.148.531-.701.854-1.236.721zm12.761 3.676c-.545-.092-.9-.605-.793-1.145.106-.54.635-.903 1.179-.81l6.432 1.089c.545.092.9.605.793 1.145-.106.54-.635.903-1.179.81zm-61.578-26.126c-.536-.132-.85-.671-.702-1.202.147-.532.701-.855 1.236-.722l6.373 1.583c.535.133.849.672.702 1.203-.148.532-.701.855-1.237.722zm26.49 6.425c-.536-.133-.85-.672-.702-1.203.147-.531.701-.854 1.236-.721l6.373 1.583c.535.133.85.671.702 1.203-.148.531-.701.854-1.236.721zm-13.729-2.749c-.545-.092-.9-.605-.793-1.145.106-.539.634-.902 1.179-.81l6.432 1.089c.544.093.9.605.793 1.145-.106.54-.635.903-1.179.811zm26.49 6.425c-.544-.093-.9-.605-.793-1.145.106-.54.635-.903 1.179-.811l6.432 1.09c.545.092.9.605.793 1.145-.106.54-.634.902-1.179.81zm13.729 2.748c-.535-.132-.85-.671-.702-1.202.148-.532.701-.855 1.236-.722l6.373 1.583c.535.133.85.672.702 1.203-.148.532-.701.855-1.236.722zm12.762 3.676c-.545-.092-.901-.605-.794-1.145.107-.539.635-.902 1.18-.81l6.431 1.089c.545.093.9.605.793 1.145-.106.54-.634.903-1.179.811zm-35.089-19.701c-.535-.133-.849-.671-.702-1.203.148-.531.701-.854 1.236-.721l6.373 1.583c.536.133.85.672.702 1.203-.147.531-.701.854-1.236.722zm-13.729-2.749c-.544-.092-.9-.604-.793-1.144s.635-.903 1.18-.811l6.431 1.09c.545.092.9.604.793 1.144-.106.54-.634.903-1.179.811zm26.491 6.425c-.545-.092-.9-.605-.794-1.145.107-.54.635-.903 1.18-.81l6.431 1.089c.545.092.9.605.793 1.145-.106.54-.634.903-1.179.81zm-36.066-9.309.535-1.924zm0 0-3.186-.791c-1.292-.321-.758-2.245.534-1.924l3.187.791 3.186.792c1.292.321.758 2.245-.534 1.924zm52.981 12.849.534-1.924zm.534-1.924c1.292.321.758 2.245-.534 1.924l-3.187-.791c-1.292-.321-.757-2.245.535-1.924l3.186.791 3.187.792c1.292.321.757 2.245-.535 1.924l-3.186-.792c-1.293-.321-.758-2.245.534-1.924zm9.041 4.808c-.545-.092-.9-.604-.794-1.144.107-.54.635-.903 1.18-.811l6.431 1.09c.545.092.9.604.794 1.144-.107.54-.635.903-1.18.811zm-187.966 23.584c-.54-.114-.873-.641-.745-1.177.129-.536.672-.877 1.212-.763l6.43 1.362c.54.114.873.641.744 1.177-.128.535-.671.877-1.211.762zm3.824-9.73c-.54-.115-.873-.641-.744-1.177s.671-.877 1.211-.763l6.43 1.361c.54.115.874.642.745 1.177-.129.536-.671.878-1.211.763zm22.899 15.233c-.54-.114-.873-.641-.744-1.177s.671-.877 1.211-.763l6.43 1.361c.54.115.874.642.745 1.177-.129.536-.671.878-1.211.763zm3.825-9.73c-.54-.115-.873-.642-.745-1.177.129-.536.671-.878 1.211-.763l6.431 1.361c.54.114.873.641.744 1.177-.128.536-.671.877-1.211.763zm-17.653 7.458c-.549-.074-.922-.573-.835-1.116.088-.543.603-.923 1.152-.85l6.471.866c.548.074.922.573.834 1.116-.087.543-.603.924-1.151.85zm3.824-9.73c-.548-.074-.922-.573-.834-1.116.087-.543.603-.923 1.151-.85l6.471.866c.549.074.922.573.835 1.116-.088.543-.603.923-1.152.85zm22.899 15.233c-.548-.074-.922-.573-.834-1.116.087-.543.603-.923 1.151-.85l6.471.866c.549.074.922.573.835 1.116-.088.543-.603.923-1.152.85zm3.825-9.731c-.549-.073-.922-.572-.835-1.115.088-.543.603-.924 1.152-.85l6.471.866c.548.073.922.573.834 1.116s-.603.923-1.151.85zm10.004 12.003c-.54-.115-.873-.642-.745-1.177.129-.536.671-.878 1.211-.763l6.431 1.361c.54.114.873.641.744 1.177s-.671.877-1.211.763zm3.824-9.731c-.54-.114-.873-.641-.744-1.177.129-.535.671-.877 1.211-.762l6.43 1.361c.54.114.874.641.745 1.177s-.671.877-1.211.763zm9.07 12.961c-.548-.073-.921-.572-.834-1.115.088-.543.603-.924 1.151-.85l6.472.866c.548.073.921.573.834 1.116-.088.543-.603.923-1.151.85zm3.825-9.73c-.548-.073-.922-.573-.834-1.115.087-.543.603-.924 1.151-.85l6.471.866c.549.073.922.573.834 1.116-.087.542-.602.923-1.151.85zm-62.517-23.966c-.54-.115-.873-.642-.745-1.177.129-.536.671-.878 1.212-.763l6.43 1.361c.54.114.873.641.744 1.177-.128.536-.671.877-1.211.763zm26.723 5.502c-.54-.114-.873-.641-.744-1.177.129-.535.671-.877 1.211-.762l6.43 1.361c.54.114.874.641.745 1.177s-.671.877-1.211.763zm-13.828-2.272c-.549-.073-.922-.572-.835-1.115.088-.543.603-.924 1.152-.85l6.471.866c.548.073.922.573.834 1.116-.087.543-.603.923-1.151.85zm26.723 5.503c-.548-.073-.922-.573-.834-1.116.087-.542.603-.923 1.151-.849l6.471.866c.549.073.922.573.834 1.116-.087.542-.602.923-1.151.85zm13.829 2.272c-.54-.114-.874-.641-.745-1.177.129-.535.671-.877 1.211-.763l6.431 1.362c.54.114.873.641.744 1.177-.129.535-.671.877-1.211.763zm12.894 3.231c-.548-.073-.921-.573-.834-1.116.088-.543.603-.923 1.151-.85l6.472.867c.548.073.921.573.834 1.115-.088.543-.603.924-1.151.85zm-62.517-23.967c-.54-.114-.873-.641-.744-1.177.129-.535.671-.877 1.211-.763l6.43 1.362c.54.114.874.641.745 1.177s-.671.877-1.211.763zm26.724 5.503c-.54-.114-.873-.641-.745-1.177.129-.535.671-.877 1.211-.763l6.431 1.362c.54.114.873.641.744 1.177-.128.535-.671.877-1.211.763zm-13.829-2.272c-.548-.073-.922-.573-.834-1.116.087-.542.603-.923 1.151-.849l6.471.866c.549.073.922.573.835 1.116-.088.542-.603.923-1.152.85zm26.724 5.503c-.549-.073-.922-.573-.835-1.116.088-.543.603-.923 1.151-.85l6.472.867c.548.073.922.573.834 1.115-.088.543-.603.924-1.151.85zm13.828 2.272c-.54-.114-.873-.641-.744-1.177s.671-.877 1.211-.763l6.43 1.362c.54.114.874.641.745 1.176-.129.536-.671.878-1.211.763zm12.895 3.231c-.548-.074-.922-.573-.834-1.116.087-.543.603-.923 1.151-.85l6.471.866c.548.074.922.573.834 1.116-.087.543-.602.924-1.151.85zm-62.517-23.967c-.54-.114-.873-.641-.745-1.177.129-.535.671-.877 1.211-.763l6.431 1.362c.54.114.873.641.744 1.177-.128.535-.671.877-1.211.763zm26.723 5.503c-.54-.114-.873-.641-.744-1.177s.671-.877 1.211-.763l6.43 1.362c.54.114.874.641.745 1.176-.129.536-.671.878-1.211.763zm-13.828-2.272c-.549-.073-.922-.573-.835-1.116.088-.543.603-.923 1.152-.85l6.471.867c.548.073.922.573.834 1.115-.088.543-.603.924-1.151.85zm26.723 5.503c-.548-.074-.922-.573-.834-1.116.087-.543.603-.923 1.151-.85l6.471.866c.549.074.922.573.834 1.116-.087.543-.602.924-1.151.85zm13.829 2.272c-.54-.115-.874-.641-.745-1.177s.671-.877 1.211-.763l6.431 1.361c.54.115.873.642.744 1.177-.129.536-.671.878-1.211.763zm12.894 3.231c-.548-.074-.921-.573-.834-1.116.088-.543.603-.923 1.151-.85l6.472.866c.548.074.921.573.834 1.116-.088.543-.603.923-1.151.85zm-62.517-23.967c-.54-.114-.873-.641-.744-1.177s.671-.877 1.211-.763l6.43 1.362c.54.114.874.641.745 1.176-.129.536-.671.878-1.211.763zm26.724 5.503c-.54-.115-.873-.641-.745-1.177.129-.536.671-.877 1.211-.763l6.431 1.361c.54.115.873.642.744 1.177-.129.536-.671.878-1.211.763zm-13.829-2.272c-.548-.074-.922-.573-.834-1.116.087-.543.603-.923 1.151-.85l6.471.866c.549.074.922.573.835 1.116-.088.543-.603.924-1.152.85zm26.723 5.503c-.548-.074-.921-.573-.834-1.116.088-.543.603-.923 1.151-.85l6.472.866c.548.074.921.573.834 1.116-.088.543-.603.923-1.151.85zm13.829 2.272c-.54-.115-.873-.642-.744-1.177.129-.536.671-.878 1.211-.763l6.43 1.361c.54.114.874.641.745 1.177s-.671.877-1.211.763zm12.895 3.23c-.548-.073-.922-.573-.834-1.115.087-.543.603-.924 1.151-.85l6.471.866c.548.073.922.573.834 1.116-.087.543-.603.923-1.151.85zm-35.794-18.463c-.54-.115-.873-.642-.744-1.177.129-.536.671-.878 1.211-.763l6.43 1.361c.54.114.874.641.745 1.177s-.671.877-1.211.763zm-13.828-2.272c-.549-.074-.922-.573-.835-1.116.088-.543.603-.924 1.151-.85l6.472.866c.548.074.922.573.834 1.116s-.603.923-1.151.85zm26.723 5.502c-.548-.073-.922-.573-.834-1.115.087-.543.603-.924 1.151-.85l6.471.866c.549.073.922.573.834 1.116-.087.543-.602.923-1.151.85zm-36.403-8.053.467-1.939zm0 0-3.215-.68c-1.304-.276-.837-2.216.466-1.94l3.216.681 3.215.68c1.304.276.837 2.216-.467 1.94zm53.447 11.006.467-1.94zm.467-1.94c1.303.276.837 2.216-.467 1.94l-3.215-.681c-1.304-.276-.837-2.216.466-1.94l3.216.681 3.215.681c1.303.276.837 2.216-.467 1.94l-3.215-.681c-1.304-.276-.837-2.216.467-1.94zm9.212 4.49c-.548-.073-.921-.573-.834-1.116.088-.542.603-.923 1.151-.85l6.472.867c.548.073.921.573.834 1.116-.088.542-.603.923-1.151.85zm-171.42 31.181c-.542-.105-.885-.626-.765-1.163.119-.538.655-.889 1.197-.784l6.457 1.25c.542.105.885.626.765 1.164-.119.537-.656.888-1.198.783zm3.653-9.79c-.542-.105-.885-.626-.765-1.164.119-.537.656-.888 1.198-.783l6.456 1.25c.542.105.885.626.765 1.163-.119.538-.655.889-1.197.784zm23.175 14.83c-.542-.105-.885-.626-.766-1.164.12-.537.656-.888 1.198-.783l6.457 1.25c.542.105.884.625.765 1.163s-.656.888-1.198.783zm3.653-9.791c-.542-.105-.885-.626-.765-1.163.119-.538.655-.889 1.198-.784l6.456 1.25c.542.105.885.626.765 1.164-.119.537-.655.888-1.197.783zm-17.526 7.758c-.549-.064-.932-.557-.854-1.101s.587-.933 1.137-.869l6.488.754c.55.064.932.557.854 1.101s-.587.933-1.136.869zm3.654-9.79c-.55-.064-.932-.557-.855-1.101.078-.544.587-.933 1.137-.869l6.488.754c.55.064.932.557.854 1.101s-.586.933-1.136.869zm23.174 14.829c-.549-.063-.932-.556-.854-1.1s.587-.934 1.136-.87l6.489.755c.55.064.932.557.854 1.101s-.587.933-1.136.869zm3.654-9.79c-.55-.064-.933-.557-.855-1.101s.587-.933 1.137-.869l6.488.754c.55.064.932.557.854 1.101s-.586.933-1.136.869zm10.219 11.823c-.542-.105-.885-.626-.766-1.164.12-.537.656-.888 1.198-.783l6.456 1.25c.543.105.885.626.766 1.163-.119.538-.656.889-1.198.784zm3.653-9.791c-.542-.105-.885-.625-.765-1.163.119-.538.655-.888 1.198-.783l6.456 1.249c.542.105.885.626.765 1.164-.119.538-.655.888-1.198.783zm9.302 12.798c-.55-.064-.932-.557-.854-1.101s.587-.933 1.136-.869l6.489.754c.549.064.932.557.854 1.101s-.587.933-1.137.869zm3.653-9.791c-.549-.064-.932-.556-.854-1.1s.587-.934 1.137-.87l6.488.755c.55.064.932.556.854 1.1s-.587.934-1.136.87zm-62.957-22.876c-.542-.105-.885-.626-.766-1.163.12-.538.656-.889 1.198-.784l6.456 1.25c.542.105.885.626.766 1.164-.12.537-.656.888-1.198.783zm26.828 5.04c-.543-.105-.885-.626-.766-1.164.12-.538.656-.888 1.198-.783l6.456 1.25c.542.105.885.625.766 1.163-.12.538-.656.888-1.198.783zm-13.873-2.033c-.55-.064-.932-.557-.854-1.101s.587-.933 1.136-.869l6.489.754c.549.064.932.557.854 1.101s-.587.933-1.137.869zm26.828 5.039c-.55-.064-.932-.556-.854-1.1s.586-.934 1.136-.87l6.489.755c.549.064.932.556.854 1.1s-.587.934-1.137.87zm13.873 2.033c-.543-.105-.885-.626-.766-1.164.119-.537.656-.888 1.198-.783l6.456 1.25c.542.105.885.626.766 1.163-.12.538-.656.889-1.198.784zm12.955 3.007c-.55-.064-.932-.557-.854-1.101s.586-.933 1.136-.869l6.488.754c.55.064.932.557.855 1.101-.078.544-.587.933-1.137.869zm-62.958-22.876c-.542-.105-.885-.626-.765-1.164.119-.537.655-.888 1.197-.783l6.457 1.25c.542.105.885.626.765 1.163-.119.538-.656.888-1.198.783zm26.828 5.039c-.542-.105-.885-.626-.766-1.163.12-.538.656-.889 1.198-.784l6.457 1.25c.542.105.884.626.765 1.163-.119.538-.656.889-1.198.784zm-13.873-2.033c-.549-.063-.932-.556-.854-1.1s.587-.933 1.137-.87l6.488.755c.55.064.932.557.854 1.101s-.587.933-1.136.869zm26.828 5.04c-.549-.064-.932-.557-.854-1.101s.587-.933 1.136-.869l6.489.754c.55.064.932.557.854 1.101s-.587.933-1.136.869zm13.873 2.032c-.542-.105-.885-.626-.766-1.163.12-.538.656-.888 1.198-.783l6.456 1.249c.543.105.885.626.766 1.164s-.656.888-1.198.783zm12.955 3.007c-.55-.064-.932-.556-.854-1.1.078-.545.587-.934 1.136-.87l6.489.755c.549.063.932.556.854 1.1s-.587.934-1.137.87zm-62.958-22.876c-.542-.105-.885-.626-.765-1.163.119-.538.656-.889 1.198-.784l6.456 1.25c.542.105.885.626.765 1.164-.119.537-.655.888-1.197.783zm26.828 5.039c-.542-.105-.885-.625-.765-1.163.119-.538.655-.888 1.198-.783l6.456 1.249c.542.105.885.626.765 1.164-.119.538-.655.888-1.197.783zm-13.872-2.032c-.55-.064-.932-.557-.854-1.101.077-.544.586-.933 1.136-.869l6.488.754c.55.064.932.557.854 1.101s-.586.933-1.136.869zm26.828 5.039c-.55-.064-.933-.556-.855-1.1s.587-.934 1.137-.87l6.488.755c.55.064.932.556.854 1.1s-.586.934-1.136.87zm13.872 2.033c-.542-.105-.885-.626-.765-1.164.119-.537.655-.888 1.198-.783l6.456 1.25c.542.105.885.626.765 1.163-.119.538-.655.889-1.198.784zm12.955 3.007c-.549-.064-.932-.557-.854-1.101s.587-.933 1.137-.869l6.488.754c.55.064.932.557.854 1.101s-.587.933-1.136.869zm-62.957-22.876c-.542-.105-.885-.626-.766-1.164.12-.538.656-.888 1.198-.783l6.456 1.25c.542.105.885.625.766 1.163-.12.538-.656.888-1.198.783zm26.828 5.039c-.543-.105-.885-.626-.766-1.164.12-.537.656-.888 1.198-.783l6.456 1.25c.542.105.885.626.766 1.163-.12.538-.656.889-1.198.784zm-13.873-2.033c-.55-.063-.932-.556-.854-1.1s.587-.934 1.136-.87l6.489.755c.549.064.932.556.854 1.1s-.587.934-1.137.87zm26.828 5.04c-.55-.064-.932-.557-.854-1.101s.586-.933 1.136-.869l6.489.754c.549.064.932.557.854 1.101s-.587.933-1.137.869zm13.873 2.032c-.543-.105-.885-.626-.766-1.163.119-.538.656-.889 1.198-.784l6.456 1.25c.542.105.885.626.766 1.164-.12.537-.656.888-1.198.783zm12.955 3.007c-.55-.064-.932-.557-.854-1.101s.586-.933 1.136-.869l6.488.755c.55.063.933.556.855 1.1s-.587.933-1.137.87zm-36.13-17.837c-.542-.105-.885-.626-.766-1.163.12-.538.656-.888 1.198-.783l6.457 1.249c.542.105.884.626.765 1.164-.119.537-.656.888-1.198.783zm-13.873-2.032c-.549-.064-.932-.557-.854-1.101s.587-.933 1.137-.869l6.488.754c.55.064.932.557.854 1.101s-.587.933-1.136.869zm26.828 5.039c-.549-.064-.932-.556-.854-1.101.078-.544.587-.933 1.136-.869l6.489.755c.55.063.932.556.854 1.1s-.587.934-1.136.87zm-36.555-7.421.433-1.947zm0 0-3.228-.625c-1.309-.253-.876-2.2.432-1.947l3.229.625 3.228.625c1.309.253.876 2.2-.433 1.947zm53.656 10.079.432-1.947zm.432-1.947c1.309.253.877 2.2-.432 1.947l-3.228-.625c-1.309-.254-.877-2.201.432-1.947l3.228.625 3.228.625c1.309.253.877 2.2-.432 1.947l-3.228-.625c-1.309-.254-.877-2.201.432-1.947zm9.295 4.329c-.55-.064-.932-.557-.854-1.101s.587-.933 1.136-.869l6.489.754c.549.064.932.557.854 1.101s-.587.933-1.137.869zm-18.282 157.673c-.139.534-.686.866-1.224.742-.538-.123-.862-.656-.723-1.19l1.646-6.354c.138-.534.686-.866 1.224-.742.537.123.861.656.723 1.19zm-9.705-3.711c-.139.534-.686.866-1.224.742-.538-.123-.862-.656-.723-1.19l1.646-6.354c.138-.534.686-.866 1.224-.742.537.123.861.656.723 1.19zm16.389-22.695c-.139.534-.687.866-1.224.743-.538-.124-.862-.657-.724-1.19l1.647-6.355c.138-.533.686-.866 1.223-.742.538.124.862.657.724 1.19zm-9.705-3.711c-.139.534-.687.866-1.224.743-.538-.124-.862-.657-.724-1.19l1.647-6.355c.138-.533.686-.866 1.223-.742.538.124.862.657.724 1.19zm6.829 17.372c-.097.541-.619.913-1.165.83-.547-.082-.911-.589-.814-1.13l1.146-6.391c.097-.542.619-.914 1.165-.831.547.083.911.589.814 1.131zm-9.705-3.711c-.097.542-.619.913-1.165.83-.547-.082-.911-.589-.814-1.13l1.146-6.391c.097-.542.619-.914 1.165-.831.547.083.911.589.814 1.131zm16.389-22.695c-.097.542-.619.914-1.165.831-.547-.083-.911-.589-.814-1.131l1.146-6.391c.097-.542.618-.913 1.165-.83.547.082.911.589.814 1.13zm-9.705-3.711c-.097.542-.619.914-1.165.831-.547-.083-.911-.589-.814-1.131l1.146-6.391c.097-.541.618-.913 1.165-.83.547.082.911.589.814 1.13zm12.58-9.949c-.138.533-.686.866-1.224.742-.537-.124-.861-.657-.723-1.19l1.646-6.354c.139-.534.687-.866 1.224-.743.538.124.862.657.723 1.19zm-9.705-3.711c-.138.533-.686.866-1.223.742-.538-.124-.862-.656-.724-1.19l1.646-6.354c.139-.534.687-.866 1.224-.743.538.124.862.657.723 1.191zm13.514-9.034c-.097.541-.619.913-1.166.83-.546-.083-.911-.589-.814-1.13l1.146-6.392c.097-.541.619-.913 1.166-.83s.911.589.814 1.13zm-9.705-3.711c-.097.541-.619.913-1.166.83-.546-.083-.911-.589-.814-1.13l1.146-6.392c.097-.541.619-.913 1.166-.83s.911.589.814 1.13zm-26.881 61.845c-.139.534-.686.866-1.224.742-.538-.123-.862-.656-.723-1.19l1.646-6.354c.138-.533.686-.866 1.224-.742.537.124.861.656.723 1.19zm6.684-26.406c-.139.534-.687.866-1.224.743-.538-.124-.862-.657-.724-1.19l1.647-6.354c.138-.534.686-.866 1.223-.743.538.124.862.657.724 1.19zm-2.876 13.661c-.097.542-.619.913-1.165.831-.547-.083-.911-.589-.814-1.131l1.146-6.391c.097-.542.619-.913 1.165-.831.547.083.911.589.814 1.131zm6.684-26.406c-.097.542-.619.914-1.165.831-.547-.083-.911-.589-.814-1.131l1.146-6.391c.097-.541.619-.913 1.165-.83.547.083.911.589.814 1.13zm2.875-13.66c-.138.533-.686.866-1.223.742-.538-.124-.862-.656-.724-1.19l1.646-6.354c.139-.534.687-.866 1.224-.742.538.123.862.656.723 1.19zm3.809-12.745c-.097.541-.619.913-1.166.83-.546-.083-.911-.589-.814-1.13l1.146-6.392c.097-.541.619-.913 1.166-.83s.911.589.814 1.13zm-26.881 61.845c-.139.534-.686.866-1.224.743-.538-.124-.862-.657-.723-1.191l1.646-6.354c.138-.533.686-.866 1.224-.742.537.124.861.656.723 1.19zm6.684-26.405c-.139.533-.687.866-1.224.742-.538-.124-.862-.657-.724-1.19l1.647-6.354c.138-.534.686-.866 1.223-.743.538.124.862.657.724 1.19zm-2.876 13.66c-.097.542-.619.913-1.165.831-.547-.083-.911-.589-.814-1.131l1.146-6.391c.097-.542.619-.913 1.165-.831.547.083.911.589.814 1.131zm6.684-26.405c-.097.541-.619.913-1.165.83-.547-.083-.911-.589-.814-1.13l1.146-6.392c.097-.541.619-.913 1.165-.83.547.083.911.589.814 1.13zm2.875-13.661c-.138.534-.686.866-1.223.742-.538-.123-.862-.656-.724-1.19l1.646-6.354c.139-.534.687-.866 1.224-.742.538.123.862.656.723 1.19zm3.809-12.745c-.097.541-.619.913-1.166.83-.546-.083-.911-.589-.814-1.13l1.146-6.392c.097-.541.619-.913 1.166-.83s.911.589.814 1.131zm-26.881 61.845c-.138.534-.686.866-1.224.743-.538-.124-.862-.657-.723-1.19l1.646-6.355c.138-.533.686-.866 1.224-.742.537.124.861.657.723 1.19zm6.684-26.405c-.139.533-.687.866-1.224.742-.538-.124-.862-.657-.724-1.19l1.647-6.354c.138-.534.686-.866 1.223-.743.538.124.862.657.724 1.19zm-2.876 13.66c-.097.542-.619.914-1.165.831-.547-.083-.911-.589-.814-1.131l1.146-6.391c.097-.542.619-.913 1.165-.83.547.082.911.589.814 1.13zm6.684-26.405c-.097.541-.619.913-1.165.83-.547-.083-.911-.589-.814-1.13l1.146-6.392c.097-.541.619-.913 1.165-.83.547.083.911.589.814 1.13zm2.875-13.661c-.138.534-.686.866-1.224.742-.537-.123-.861-.656-.723-1.19l1.646-6.354c.139-.534.687-.866 1.224-.742.538.123.862.656.723 1.19zm3.809-12.745c-.097.541-.619.913-1.166.83-.546-.083-.911-.589-.814-1.13l1.146-6.391c.097-.542.619-.914 1.166-.831s.911.589.814 1.131zm-26.881 61.845c-.138.534-.686.866-1.224.743-.538-.124-.862-.657-.723-1.19l1.646-6.355c.138-.533.686-.866 1.224-.742.537.124.861.657.723 1.19zm6.684-26.405c-.139.533-.687.866-1.224.742-.538-.124-.862-.656-.724-1.19l1.647-6.354c.138-.534.686-.866 1.223-.743.538.124.862.657.724 1.191zm-2.876 13.66c-.097.542-.619.914-1.165.831-.547-.083-.911-.589-.814-1.131l1.146-6.391c.097-.541.619-.913 1.165-.83.547.082.911.589.814 1.13zm6.684-26.405c-.097.541-.619.913-1.165.83-.547-.083-.911-.589-.814-1.13l1.146-6.392c.097-.541.618-.913 1.165-.83s.911.589.814 1.13zm2.875-13.661c-.138.534-.686.866-1.223.742-.538-.123-.862-.656-.724-1.19l1.646-6.354c.139-.534.687-.866 1.224-.742.538.123.862.656.723 1.19zm3.809-12.745c-.097.541-.619.913-1.166.83-.546-.082-.911-.589-.814-1.13l1.146-6.391c.097-.542.619-.914 1.166-.831s.911.589.814 1.131zm-20.197 35.44c-.139.533-.687.866-1.224.742-.538-.124-.862-.656-.724-1.19l1.647-6.354c.138-.534.686-.866 1.223-.742.538.123.862.656.724 1.19zm-2.876 13.66c-.097.542-.619.914-1.165.831-.547-.083-.911-.589-.814-1.131l1.146-6.391c.097-.541.619-.913 1.165-.83.547.083.911.589.814 1.13zm6.684-26.405c-.097.541-.619.913-1.165.83-.547-.083-.911-.589-.814-1.13l1.146-6.392c.097-.541.619-.913 1.165-.83.547.083.911.589.814 1.13zm-9.669 35.973-1.947-.447zm0 0-.823 3.177c-.334 1.289-2.281.841-1.947-.447l.823-3.177.823-3.177c.333-1.289 2.281-.841 1.947.447zm13.367-52.811-1.947-.448zm-1.947-.448c.334-1.288 2.281-.84 1.947.448l-.823 3.177c-.333 1.288-2.28.841-1.947-.448l.823-3.177.823-3.177c.334-1.288 2.281-.84 1.947.448l-.823 3.177c-.333 1.288-2.28.841-1.947-.448zm4.933-9.12c-.097.542-.619.913-1.166.83-.546-.082-.911-.588-.814-1.13l1.146-6.391c.098-.542.619-.914 1.166-.831s.911.589.814 1.131z" fill="#002d6f"/></g><g fill="#56aaff"><path d="m908.61 520.846c-74.767-13.234-104.19-54.12-93.126-117.105 11.016-62.716 52.547-90.763 127.314-77.529 74.502 13.186 104.192 54.119 93.222 116.565-11.02 62.715-52.912 91.256-127.41 78.069zm7.129-40.587c42.925 7.598 66.252-10.383 72.498-45.941 6.198-35.287-9.644-59.921-52.568-67.519-42.925-7.598-66.157 9.84-72.402 45.398-6.294 35.83 9.548 60.464 52.472 68.062z"/><path d="m908.61 520.846c-74.767-13.234-104.19-54.12-93.126-117.105 11.016-62.716 52.547-90.763 127.314-77.529 74.502 13.186 104.192 54.119 93.222 116.565-11.02 62.715-52.912 91.256-127.41 78.069zm7.129-40.587c42.925 7.598 66.252-10.383 72.498-45.941 6.198-35.287-9.644-59.921-52.568-67.519-42.925-7.598-66.157 9.84-72.402 45.398-6.294 35.83 9.548 60.464 52.472 68.062z"/><path d="m837.569 352.287c13.226 6.126 33.281 14.6 49.258 20.815-12.482 7.761-20.14 21.171-23.338 39.308-6.304 35.751 9.619 60.342 52.734 67.944s66.536-10.33 72.792-45.81c4.907-27.83-4.012-49.025-29.255-60.441l35.487-30.256c36.313 20.276 49.703 54.113 41.763 99.161-11.03 62.578-53.099 91.039-127.928 77.845-75.099-13.242-104.67-54.056-93.588-116.905 3.76-21.327 11.083-38.634 22.075-51.661z"/></g><path clip-rule="evenodd" d="m938.16 288.668c-2.522-2.143-4.298-5.183-4.795-8.718-1.076-7.657 4.258-14.736 11.915-15.812s14.736 4.259 15.812 11.915c1.076 7.657-4.258 14.736-11.915 15.812-.83.117-1.654.158-2.464.13 15.796 7.192 21.967 17.027 18.516 29.507-4.334 15.666-4.334 27.5 0 35.5l-83-16c4.853-6.549 7.853-11.549 9-15 5.675-17.079 5.732-28.5 6.5-28.5 1 0 12.666-3.5 35-10.5 1.89.533 3.7 1.088 5.431 1.666z" fill="#002d6f" fill-rule="evenodd"/><path d="m960.916 321.493c-.088-15.933-11.465-30.383-27.917-33.99l-4.947-1.085c-18.848-4.133-37.222 7.53-41.038 26.05l-2.103 10.206c-2.654 12.883 5.823 25.657 18.935 28.532l12.467 2.734-6.787 33.052c3.79 4.155 9.561 6.935 17.312 8.34 7.75 1.405 14.268.649 19.553-2.269l11.795-58.065c.878-2.046 1.564-4.212 2.031-6.48.481-2.332.708-4.662.699-6.962l.013-.065z" fill="#ff9c99"/><g mask="url(#c)"><path clip-rule="evenodd" d="m915.379 353.807 19.072-.388-21.046 6.355zm-26.733-47.424c3.918-9.604 8.439-16.272 13.565-20.003 5.127-3.732 14.698-7.324 28.715-10.777l41.518 28.106-14.459 39.384-3.445 11.937-4.31-19.606-20.334-20.11-14.703-3.183 1.188-5.691-9.765 3.834z" fill="#002d6f" fill-rule="evenodd"/></g><path d="m785.144 626.313-16.22 56.566-52.244-14.981-12.165 42.425-67.17-19.261 12.165-42.424-184.345-52.86 16.22-56.567 230.658-108.651 67.17 19.261-46.313 161.511zm-230.697-66.172 111.506 31.974 27.288-95.165z" fill="#56aaff"/><g mask="url(#d)"><path clip-rule="evenodd" d="m606.228 581.502 8 79.5-18.5 47.5 32.5 18.5 53 46 11.5-9.5c8.229-8.712 12.896-15.879 14-21.5s18.938-5.621 53.5 0l-67.5-184.5z" fill="#002d6f" fill-rule="evenodd"/></g><path d="m1331.45 590.353 31.19 49.904-46.09 28.8 23.38 37.428-59.26 37.03-23.38-37.428-162.64 101.624-31.18-49.904 73.6-244.113 59.26-37.03 89.03 142.489zm-203.54 127.164 98.37-61.471-52.46-83.957z" fill="#56aaff"/><g mask="url(#e)"><path clip-rule="evenodd" d="m1093.23 691.501c-1.33 0-9.5 28.5-24.5 85.5l26.5 40 91.5-39.5-14.5-93c-51.33 4.667-77.67 7-79 7z" fill="#002d6f" fill-rule="evenodd"/></g><path clip-rule="evenodd" d="m906.729 310.502-23.5-5c11.666-18.667 27.5-25 47.5-19 16.902 5.07 3.594 4.572-19.5 12.5-2.822.968-4.322 4.802-4.5 11.5z" fill="#002d6f" fill-rule="evenodd"/><path d="m891.584 318.37c.096.487.144 1.042.144 1.631 0 1.932-.523 3.5-1.5 3.5s-1.5-1.568-1.5-3.5c0-.933.122-1.781.359-2.409-2.399-.561-4.466-.518-6.327.115-.523.178-1.091-.101-1.269-.624s.102-1.091.624-1.269c2.823-.961 5.961-.789 9.635.472 1.769.607 3.81 2.128 6.174 4.557.386.395.377 1.028-.019 1.414-.395.385-1.028.376-1.414-.019-1.925-1.978-3.573-3.266-4.907-3.868zm27.91 6.608c.155.572.234 1.27.234 2.023 0 1.932-.523 3.5-1.5 3.5s-1.5-1.568-1.5-3.5c0-1.03.149-1.957.436-2.598-2.012-.351-3.786-.247-5.404.304-.523.178-1.091-.101-1.269-.624s.102-1.091.624-1.269c2.823-.961 5.961-.789 9.635.472 1.769.607 3.81 2.128 6.174 4.557.386.395.377 1.028-.019 1.414-.395.385-1.028.376-1.414-.019-2.165-2.224-3.979-3.576-5.39-4.061-.205-.07-.407-.136-.607-.199zm-12.916-2.95-5.742 9.275 3.588.718c.542.108.893.635.785 1.176-.109.542-.635.893-1.177.785l-5-1c-.684-.137-1.021-.914-.654-1.507l6.5-10.5c.291-.47.907-.615 1.377-.324.469.291.614.907.323 1.377zm-8.754 17.469c-.549.053-1.038-.35-1.091-.899-.053-.55.349-1.039.899-1.092l15.5-1.5c.55-.053 1.038.349 1.092.899.053.55-.35 1.038-.9 1.092z" fill="#002d6f"/><path clip-rule="evenodd" d="m940.44 328.259c5.134-5.134 10.07-5.529 14.809-1.185 7.109 6.517-.938 18.698-9.418 18.517-5.653-.121-7.45-5.898-5.391-17.332z" fill="#ff9c99" fill-rule="evenodd"/><path clip-rule="evenodd" d="m627.173 581.053-8.305 20.169c-1.594 3.873-5.173 6.568-9.336 7.03-.547.061-1.101.027-1.636-.101-2.566-.613-4.149-3.189-3.536-5.755l14.422-60.394 2.235-.966c11.125-4.811 23.51-5.883 35.296-3.054 24.409 5.858 38.232 12.698 41.469 20.52 3.789 9.157 11.317 31.922 22.583 68.295 1.032 3.334-.833 6.874-4.167 7.906-.055.017-.11.034-.166.049-3.537.991-7.244-.886-8.54-4.323l-16.948-44.931c-1.25-3.313-4.946-4.989-8.262-3.746-3.397 1.274-5.26 4.93-4.294 8.427l10.484 37.958c1.194 4.323-1.343 8.795-5.665 9.989-.174.048-.349.09-.525.126-4.78.984-9.502-1.913-10.79-6.62l-10.395-37.995c-.938-3.43-4.478-5.449-7.908-4.511-.137.038-.273.08-.407.126-3.709 1.284-5.873 5.137-5.041 8.972l8.443 38.912c.642 2.958-1.236 5.877-4.194 6.519-.561.121-1.137.154-1.708.097-4.5-.45-8.236-3.673-9.341-8.059zm513.767 88.692c8.43-1.859 17.23.42 23.7 6.134l11.46 10.123-11 26.5-24.04 60.375c-1.58 3.988-6.02 6.024-10.08 4.625-.09-.031-.18-.063-.27-.097-3.8-1.476-5.68-5.752-4.21-9.552l15.19-39.093c.08-.222.15-.451.21-.683.59-2.621-1.05-5.229-3.67-5.825-.03-.005-.05-.011-.08-.016-3-.64-5.96 1.277-6.6 4.283l-8.65 40.655c-.03.107-.05.213-.08.319-1.06 4.101-5.24 6.568-9.34 5.509-4.37-1.127-7.12-5.436-6.31-9.873l7.51-41.12c.52-2.818-1.24-5.553-4.02-6.257-.23-.059-.47-.098-.7-.117-2.37-.194-4.45 1.57-4.65 3.94l-3.32 40.654c-.01.079-.02.157-.03.235-.53 4.978-5 8.576-9.98 8.038-5.15-.556-8.89-5.143-8.41-10.297 3.33-35.555 6.84-57.789 10.53-66.703 3.46-8.38 19.08-15.632 46.84-21.757z" fill="#ff9c99" fill-rule="evenodd"/><path clip-rule="evenodd" d="m895.729 964.502-108 70.998-78-218.498zm273.501 46.498-160-9.5-31.001-263.498 86.001 20z" fill="#ff567b" fill-rule="evenodd"/><path d="m954.808 525.893c-.216-.509.022-1.096.53-1.311.508-.216 1.095.021 1.311.529 8.913 21 20.928 31.391 36.08 31.391.552 0 1 .448 1 1s-.448 1-1 1c-16.073 0-28.724-10.942-37.921-32.609zm-16.149 70.707c.499.238.71.834.472 1.333-.238.498-.835.709-1.333.472l-22-10.5c-.498-.238-.71-.835-.472-1.334.238-.498.835-.709 1.333-.471zm-62.415-165.424c-.096-.544.267-1.063.811-1.159s1.062.267 1.158.811l3 17c.096.544-.267 1.063-.811 1.159-.543.096-1.062-.267-1.158-.811z" fill="#002d6f"/><path d="m671.729 610.002c5.799 0 10.5-4.701 10.5-10.5s-4.701-10.5-10.5-10.5-10.5 4.701-10.5 10.5 4.701 10.5 10.5 10.5z" fill="#ffe694"/><path clip-rule="evenodd" d="m555.615 769.675 13.28 7.738 11.333-8.411-2.667 13.458 8.667 3.701-7.333 5.047 3 12.785-11.334-7.402-8.333 8.411-1.667-11.776c-6.889-3.14-10.333-4.71-10.333-4.71s3.444-2.019 10.333-6.056zm647.865 50.316 19.82-7.918.49-19.596 12.45 14.426 11.46-6.321-.75 12.342 16.56 7.649-17.79 6.074 2.08 16.313-14.32-8.245c-9.32 4.855-13.99 7.282-13.99 7.282s.74-5.496 2.21-16.488zm-325.172-40.989 19.92 11.5 17-12.5-4 20 13 5.5-11 7.5 4.5 19-17-11-12.5 12.5-2.5-17.5c-10.333-4.667-15.5-7-15.5-7s5.167-3 15.5-9zm-78.544-243.308 13.649 7.953 11.648-8.645-2.74 13.832 8.907 3.803-7.537 5.187 3.083 13.141-11.648-7.608-8.565 8.645-1.713-12.103c-7.08-3.227-10.62-4.841-10.62-4.841s3.54-2.075 10.62-6.224z" fill="#56aaff" fill-rule="evenodd"/></svg>